<svg width="150" height="93" viewBox="0 0 150 93" fill="none" xmlns="http://www.w3.org/2000/svg">
<g id="&#217;&#134;&#217;&#136;&#216;&#177; &#216;&#167;&#217;&#132;&#217;&#136;&#216;&#173;&#216;&#175;&#217;&#135; 1" clip-path="url(#clip0_624_3488)">
<g id="Group">
<path id="Vector" d="M9.8731 72.0839L9.41183 71.3439H8.54465C7.2859 71.3439 6.34287 71.6015 5.70939 72.1187C4.98161 72.7054 4.6167 73.6703 4.6167 75.0155V78.7565H9.96946C10.7526 78.7565 11.2938 78.4213 11.5952 77.7528C11.7284 77.4707 11.8022 77.1395 11.8207 76.7572V70.8145H9.87105V72.0819L9.8731 72.0839ZM9.8731 75.41H6.56017V75.1811C6.56017 74.3654 6.81643 73.793 7.3269 73.4638C7.81482 73.1531 8.66356 72.9855 9.8731 72.961V75.408V75.41Z" fill="#34208E"/>
<path id="Vector_2" d="M8.70042 69.405L9.67421 70.3658L10.9022 69.176L9.67421 67.9883L8.70042 68.9389L7.71638 67.9883L6.49658 69.176L7.71638 70.3658L8.70042 69.405Z" fill="#34208E"/>
<path id="Vector_3" d="M61.9532 73.9849C61.8322 73.7498 61.6887 73.4391 61.5206 73.0527C61.2439 72.4067 60.8257 71.9263 60.266 71.6094C60.0323 71.4806 59.7904 71.3927 59.5444 71.3457H54.2716V73.7048H58.8391C59.0318 73.7171 59.243 73.7641 59.4706 73.8459C59.9216 74.0217 60.2701 74.3181 60.5181 74.7351L60.7355 75.1481C60.7949 75.2544 60.8503 75.3423 60.8974 75.4118H19.1824V75.3157C19.1824 74.2179 18.7847 73.2857 17.9913 72.5171C17.202 71.7423 16.2467 71.3539 15.1212 71.3539L15.113 71.3621H14.3278V73.2551H15.1499V73.2469C15.7219 73.2469 16.2098 73.4472 16.6116 73.8459C17.0155 74.2445 17.2246 74.7229 17.243 75.281H17.2246L17.243 75.4138H13.9034C13.5426 75.3914 13.2659 75.3137 13.0732 75.1849C12.9768 75.1133 12.8989 75.0418 12.8374 74.9641L13.2433 78.7583H18.2722C18.7949 78.7583 19.0963 78.4905 19.1742 77.9569C19.4735 78.4149 19.8979 78.6745 20.4432 78.7419C20.4842 78.7522 20.5272 78.7583 20.5723 78.7583H63.5605L63.9848 75.4118H62.9188C62.642 75.1604 62.3202 74.684 61.9532 73.9849Z" fill="#34208E"/>
<path id="Vector_4" d="M75.0779 75.4091H71.1868V71.3512H68.9748C67.8801 71.3696 66.9432 71.7621 66.1683 72.5308C65.3974 73.2872 65.0038 74.2071 64.9854 75.2865V76.7563C65.0038 77.1386 65.0817 77.4698 65.2191 77.7519C65.5143 78.4204 66.0555 78.7556 66.8448 78.7556H68.5771C68.8067 78.7332 68.9871 78.6698 69.1183 78.5717C69.1593 78.543 69.1942 78.4919 69.2167 78.4224C69.2229 78.451 69.2249 78.4899 69.2249 78.5369C69.2249 78.6596 69.2188 78.7475 69.2065 78.8006C69.1286 79.2524 68.7883 79.6449 68.1855 79.9802C67.632 80.297 67.0744 80.4565 66.5147 80.4565L66.65 80.896L67.1195 82.7625H67.1277C68.247 82.7625 69.2044 82.3781 69.9978 81.6095C70.7871 80.8347 71.1807 79.9025 71.1807 78.8088V78.8006H71.1622L71.1807 78.6596V77.9993C71.5292 78.494 72.0212 78.7454 72.6588 78.7536C72.6691 78.7536 72.6773 78.7536 72.6875 78.7536H76.2075C76.5437 78.7536 76.7877 78.6187 76.9394 78.3488C76.9988 78.22 77.0296 78.079 77.0296 77.9257V67.9863H75.0697V75.4091H75.0779ZM69.229 75.4091H66.937V75.2865H66.9288C66.9411 74.7223 67.1523 74.2419 67.5603 73.8432C67.9764 73.4446 68.4684 73.2442 69.0404 73.2442H69.229V75.4091Z" fill="#34208E"/>
<path id="Vector_5" d="M78.0483 78.7552H78.1385C78.9278 78.7552 79.469 78.4199 79.7643 77.7515C79.8914 77.4693 79.9713 77.1382 80.0082 76.7559V67.9961H78.0483V78.7552Z" fill="#34208E"/>
<path id="Vector_6" d="M87.0772 78.4041C87.0772 79.0624 86.7369 79.5489 86.0563 79.8658C85.5438 80.1008 84.9288 80.2174 84.2051 80.2174L84.3219 80.6569L84.98 82.7871C86.1055 82.7871 87.0629 82.3986 87.8501 81.6239C88.6435 80.8491 89.0412 79.9169 89.0412 78.8232V78.815H89.0228L89.0412 78.6739V71.3574H87.0731V78.4L87.0772 78.4041Z" fill="#34208E"/>
<path id="Vector_7" d="M136.176 75.4083H96.2572V71.3503H94.0451C92.9504 71.3687 92.0135 71.7612 91.2386 72.5299C90.4677 73.2863 90.0741 74.2062 90.0557 75.2856V76.7554C90.0741 77.1377 90.152 77.4689 90.2894 77.751C90.5846 78.4195 91.1258 78.7548 91.9151 78.7548H93.6474C93.877 78.7323 94.0574 78.6689 94.1886 78.5708C94.2296 78.5422 94.2645 78.491 94.287 78.4215C94.2932 78.4502 94.2952 78.489 94.2952 78.536C94.2952 78.6587 94.2891 78.7466 94.2768 78.7997C94.1989 79.2515 93.8586 79.644 93.2558 79.9793C92.7023 80.2961 92.1447 80.4556 91.585 80.4556L91.7203 80.8951L92.1898 82.7616H92.198C93.3173 82.7616 94.2747 82.3772 95.0681 81.6086C95.8574 80.8338 96.251 79.9016 96.251 78.8079V78.7997H96.2326L96.251 78.6587V77.9984C96.6057 78.5033 97.112 78.7548 97.7681 78.7548H136.271C137.054 78.7548 137.591 78.4195 137.886 77.751C138.025 77.475 138.103 77.1459 138.122 76.7657V71.334H136.172V75.4103L136.176 75.4083ZM94.2973 75.4083H92.0053V75.2856H91.9971C92.0094 74.7214 92.2205 74.241 92.6285 73.8423C93.0447 73.4437 93.5367 73.2434 94.1087 73.2434H94.2973V75.4083Z" fill="#34208E"/>
<path id="Vector_8" d="M138.235 69.1859L137.017 67.9961L135.797 69.1859L137.017 70.3654L138.235 69.1859Z" fill="#34208E"/>
</g>
<g id="Group_2">
<path id="Vector_9" d="M14.5 86.3457V90.653L11.9743 86.3457H11.2855H10.5967V92.4867H11.2117H11.8226V88.065L14.4221 92.4867H15.0761H15.7321V86.3457H15.1151H14.5Z" fill="#34208E"/>
<path id="Vector_10" d="M23.0429 87.8203C22.3152 87.8203 21.735 88.039 21.3045 88.4786C20.8739 88.916 20.6587 89.5048 20.6587 90.2407C20.6587 90.9767 20.8739 91.5348 21.3045 91.9641C21.7309 92.3893 22.3111 92.6019 23.0429 92.6019C23.7748 92.6019 24.3529 92.3893 24.7814 91.9641C25.2119 91.5348 25.4272 90.9603 25.4272 90.2407C25.4272 89.5212 25.2119 88.9181 24.7814 88.4786C24.3509 88.0411 23.7728 87.8203 23.0429 87.8203ZM23.8794 91.2527C23.6887 91.4857 23.4099 91.6022 23.0429 91.6022C22.676 91.6022 22.3972 91.4857 22.2086 91.2527C22.0199 91.0196 21.9256 90.6762 21.9256 90.2264C21.9256 89.7767 22.0199 89.4169 22.2086 89.1798C22.3972 88.9426 22.676 88.8241 23.0429 88.8241C23.4099 88.8241 23.6887 88.9426 23.8794 89.1798C24.07 89.4169 24.1643 89.7644 24.1643 90.2264C24.1643 90.6884 24.07 91.0196 23.8794 91.2527Z" fill="#34208E"/>
<path id="Vector_11" d="M32.4301 87.8203C31.7024 87.8203 31.1222 88.039 30.6917 88.4786C30.2612 88.916 30.0459 89.5048 30.0459 90.2407C30.0459 90.9767 30.2612 91.5348 30.6917 91.9641C31.1181 92.3893 31.6983 92.6019 32.4301 92.6019C33.162 92.6019 33.7401 92.3893 34.1686 91.9641C34.5991 91.5348 34.8144 90.9603 34.8144 90.2407C34.8144 89.5212 34.5991 88.9181 34.1686 88.4786C33.7381 88.0411 33.16 87.8203 32.4301 87.8203ZM33.2666 91.2527C33.0759 91.4857 32.7971 91.6022 32.4301 91.6022C32.0632 91.6022 31.7844 91.4857 31.5958 91.2527C31.4072 91.0196 31.3128 90.6762 31.3128 90.2264C31.3128 89.7767 31.4072 89.4169 31.5958 89.1798C31.7844 88.9426 32.0632 88.8241 32.4301 88.8241C32.7971 88.8241 33.0759 88.9426 33.2666 89.1798C33.4572 89.4169 33.5515 89.7644 33.5515 90.2264C33.5515 90.6884 33.4572 91.0196 33.2666 91.2527Z" fill="#34208E"/>
<path id="Vector_12" d="M41.0119 88.4969C40.9565 88.5807 40.9073 88.6665 40.8642 88.7565V87.9408H39.6978V92.4873H40.9278V90.1262C40.9278 89.4004 41.2989 89.0366 42.041 89.0366C42.1783 89.0366 42.3014 89.0407 42.41 89.0509V87.8263L42.1292 87.8223C41.672 87.8223 41.3009 88.0471 41.0119 88.4989V88.4969Z" fill="#34208E"/>
<path id="Vector_13" d="M55.9201 86.3457H55.1574L52.9331 92.4867H54.2862L54.7044 91.2377H57.0927L57.515 92.4867H58.9132L56.6827 86.3457H55.9201ZM55.0672 90.1808L55.8996 87.7133L56.7422 90.1808H55.0693H55.0672Z" fill="#34208E"/>
<path id="Vector_14" d="M63.7266 86.3457V92.4867H64.3416H64.9525V86.3457H64.3375H63.7266Z" fill="#34208E"/>
<path id="Vector_15" d="M82.5833 86.3457L81.5398 90.8002L80.6234 86.3457H79.9243H79.2252L78.3252 90.839L77.2756 86.3457H76.5929H75.9082L77.661 92.4867H78.2843H78.9095L79.8997 87.652L80.9084 92.4867H81.5336H82.1589L83.9117 86.3457H83.2475H82.5833Z" fill="#34208E"/>
<path id="Vector_16" d="M91.2428 86.3457H90.4802L88.2559 92.4867H89.6089L90.0271 91.2377H92.4155L92.8378 92.4867H94.2359L92.0055 86.3457H91.2428ZM90.39 90.1808L91.2223 87.7133L92.0649 90.1808H90.3921H90.39Z" fill="#34208E"/>
<path id="Vector_17" d="M102.84 86.3457V88.6455H100.38V86.3457H99.7199H99.0659V92.4867H99.726H100.38V89.7065H102.84V92.4867H103.5H104.16V86.3457H103.5H102.84Z" fill="#34208E"/>
<path id="Vector_18" d="M112.176 86.3457H109.484V92.4867H112.07C112.972 92.4867 113.656 92.2128 114.124 91.6649C114.591 91.1171 114.825 90.3178 114.825 89.265C114.825 88.3103 114.599 87.5866 114.15 87.0898C113.701 86.5931 113.043 86.3457 112.176 86.3457ZM111.906 91.4299H110.798V87.4026H112.014C113.013 87.4026 113.511 88.0404 113.511 89.3181C113.511 90.7266 112.976 91.4299 111.906 91.4299Z" fill="#34208E"/>
<path id="Vector_19" d="M122.346 86.3457H121.584L119.359 92.4867H120.712L121.131 91.2377H123.519L123.941 92.4867H125.339L123.109 86.3457H122.346ZM121.494 90.1808L122.326 87.7133L123.168 90.1808H121.496H121.494Z" fill="#34208E"/>
<path id="Vector_20" d="M134.604 86.3457H133.944V88.6455H131.484V86.3457H130.823H130.169V92.4867H130.828H131.484V89.7065H133.944V92.4867H134.604H135.264V86.3457H134.604Z" fill="#34208E"/>
</g>
<path id="Vector_21" d="M149.996 35.7173C147.979 38.2154 145.564 40.135 143.401 42.306C138.647 47.0774 134.639 52.3496 132.187 58.6828C131.857 59.5333 131.578 60.4041 131.277 61.2668C130.902 62.3482 130.153 62.9166 128.995 62.9063C128.362 62.9002 127.728 62.8532 127.097 62.8532C97.2127 62.8389 67.3308 62.8266 37.4468 62.8123C35.0789 62.8123 32.6947 63.0924 30.3617 62.4321C29.9517 62.3155 29.5089 62.289 29.1357 61.8965C31.5015 61.3772 33.814 60.813 36.0773 60.0832C43.9968 57.5319 51.4898 54.0505 58.5113 49.6041C59.9095 48.719 61.3896 48.4614 62.9231 48.2222C65.785 47.7765 68.6551 47.3779 71.5211 46.9568C74.301 46.5479 77.081 46.1432 79.8588 45.72C82.6244 45.2989 85.3858 44.8491 88.1534 44.43C90.3983 44.0907 92.6492 43.7881 94.8941 43.4488C98.3977 42.9173 101.899 42.3633 105.403 41.8297C108.09 41.4188 110.782 41.0263 113.472 40.6195C113.716 40.5827 113.95 40.4805 114.194 40.4335C114.626 40.3517 114.653 40.0389 114.595 39.7139C114.528 39.3255 114.196 39.4645 113.98 39.491C110.932 39.8754 107.857 39.9019 104.8 40.2004C102.898 40.3864 100.979 40.505 99.0639 40.6236C97.0651 40.7483 95.0704 40.9057 92.8727 41.0631C94.5148 38.5875 96.5116 36.8928 99.269 36.2897C101.317 35.842 103.435 35.8951 105.516 35.6703C107.412 35.4658 109.323 35.4536 111.213 35.151C112.199 34.9936 113.214 35.0692 114.22 34.9691C116.434 34.7462 118.667 34.7054 120.889 34.5459C123.952 34.3251 127.011 34.0491 130.073 33.8263C131.58 33.718 133.093 33.6914 134.6 33.5994C135.728 33.5319 136.855 33.4502 137.977 33.3234C140.133 33.0781 142.23 33.5381 144.34 33.8345C146.316 34.1105 148.112 34.9405 150 35.7173H149.996ZM112.307 51.9837C113.074 52.0757 113.847 51.904 114.608 51.7241C115.18 51.5871 116.17 51.6893 116.215 51.1721C116.281 50.4423 115.36 50.1193 114.747 49.7493C114.587 49.6532 114.401 49.596 114.22 49.5449C112.408 49.0379 110.624 49.2648 108.831 49.7002C108.127 49.8719 108.289 50.1132 108.599 50.5098C109.54 51.7179 110.813 52.09 112.307 51.9817V51.9837Z" fill="#34208E"/>
<path id="Vector_22" d="M59.3518 38.6809C59.3539 39.239 59.2247 39.5559 58.6712 39.8421C53.835 42.3709 48.9661 44.8445 44.0193 47.1484C40.8129 48.6407 37.498 49.9204 34.1051 50.9303C31.6532 51.6581 29.1336 52.1528 26.6038 52.5903C23.1372 53.1933 19.6561 52.9542 16.1853 52.8846C14.9266 52.8581 13.6801 52.4206 12.4255 52.1651C11.9089 52.0588 11.9314 51.6581 11.9601 51.2717C12.0544 50.0145 12.2389 48.7593 12.2512 47.502C12.3189 40.1712 12.284 32.8404 12.4357 25.5116C12.4747 23.7351 12.5239 21.885 13.2865 20.1678C13.8339 18.9249 14.822 18.3975 16.0398 18.0234C18.2313 17.3508 20.5151 17.1545 22.7292 16.5781C25.6465 15.8196 28.6232 15.3065 31.565 14.6278C34.673 13.9123 37.7993 13.252 40.8908 12.4547C43.7897 11.7065 46.7315 11.1259 49.6467 10.4431C52.0802 9.87278 54.5013 9.2595 56.9327 8.67687C57.6994 8.49289 58.3432 8.78522 58.6076 9.48233C58.8147 10.0241 59.0135 10.5924 59.0607 11.2077C59.4789 16.6619 59.481 22.1263 59.3416 27.5906C59.3416 31.2867 59.3334 34.9828 59.3518 38.6789V38.6809Z" fill="#EFCF2D"/>
<path id="Vector_23" d="M7.70604 29.6011C7.62404 30.8706 6.98646 31.9684 6.55799 33.1214C5.26234 36.613 4.38901 40.2253 4.92818 43.9091C5.68056 49.0382 7.95 52.5278 13.7517 54.2185C16.2016 54.9319 18.7724 55.0321 21.3288 54.9892C28.3175 54.8747 34.9741 53.4825 41.2392 50.2321C47.3505 47.0635 53.675 44.3118 59.6715 40.9081C65.6782 37.4982 70.7419 32.9292 75.6129 28.1211C77.2345 26.5204 78.9443 24.9851 80.3732 23.2229C85.2196 17.2475 89.7236 11.0574 91.8024 3.47306C91.9951 2.76778 92.2288 2.09521 92.1447 1.36539C92.1058 1.02809 92.2903 0.766413 92.36 0.467947C92.4604 0.0284247 92.7782 -0.0410836 93.1615 0.0182008C93.5449 0.0795295 93.6577 0.3412 93.6925 0.690774C94.1394 5.08804 93.4322 9.25226 91.6978 13.3592C88.9199 19.9357 84.7439 25.5187 79.8114 30.5476C67.4617 43.1323 52.9882 52.4563 36.2616 58.2089C32.0159 59.6685 27.6369 60.6028 23.1698 61.1302C20.2361 61.4757 17.2984 61.5697 14.377 61.257C10.2666 60.8174 6.39399 59.6645 3.35577 56.6328C1.4041 54.6825 0.47336 52.2682 0.120747 49.5636C-0.348721 45.9616 0.620966 42.6192 1.81821 39.3095C3.06466 35.8669 4.94868 32.7923 7.31242 30.0018C7.43133 29.8608 7.58508 29.7483 7.72244 29.6236L7.71014 29.6032L7.70604 29.6011Z" fill="#34208E"/>
<path id="Vector_24" d="M127.033 29.4827C126.869 29.1147 126.725 28.7365 126.537 28.3828C125.746 26.8823 124.069 26.13 122.4 26.5041C122.189 26.5512 121.957 26.6207 121.752 26.5818C120.676 26.3815 120.534 27.0684 120.495 27.8595C120.475 28.2867 120.614 28.7385 120.294 29.1188C120.028 29.0145 120.126 28.7733 120.075 28.5995C119.612 27.0234 118.583 26.0544 116.947 25.8602C116.104 25.76 115.239 25.8295 114.386 25.8663C113.789 25.8908 113.584 26.2813 113.64 26.8394C113.765 28.0885 113.433 29.2987 113.416 30.652C112.674 30.1655 112.857 29.452 112.734 28.9123C112.619 28.4074 112.555 27.8615 112.477 27.3341C112.24 25.7518 112.203 25.8724 110.651 25.6026C109.593 25.4186 108.519 25.6333 107.483 25.2898C107.084 25.1569 106.852 25.2571 106.766 25.8193C106.575 27.0704 106.676 28.3256 106.573 29.7014C106.202 29.1106 106.178 28.5341 106.014 27.9985C105.597 26.6431 105.206 25.2203 103.566 24.8094C102.436 24.5253 101.307 24.6213 100.245 25.1038C99.4943 25.4452 99.6665 26.267 99.6111 26.8537C99.5209 27.79 99.322 28.7017 99.1211 29.6053C98.8403 30.8666 97.8726 31.5331 96.6836 31.8827C94.3404 32.5695 91.9397 33.0213 89.5514 33.516C85.3262 34.391 81.0927 35.221 76.847 36.0714C76.7999 35.7239 77.0828 35.6319 77.2406 35.4786C79.7766 33.0459 82.2182 30.5273 84.4344 27.8002C84.6804 27.4977 84.9674 27.2891 85.3282 27.1624C88.5673 26.0217 91.8044 24.8421 95.2239 24.3699C96.7369 24.1614 98.2499 23.8609 99.7977 23.9283C101.12 23.9856 102.426 23.638 103.756 23.7423C106.569 23.9631 109.39 23.9672 112.205 24.2575C114.437 24.4885 116.676 24.7399 118.923 24.8932C121.541 25.0711 124.151 25.392 126.764 25.6312C127.092 25.6619 127.201 25.7764 127.199 26.0891C127.189 27.2217 127.195 28.3522 127.195 29.4847C127.14 29.4847 127.084 29.4827 127.027 29.4806L127.033 29.4827Z" fill="#34208E"/>
<path id="Vector_25" d="M104.47 32.7656C102.949 33.1622 101.409 33.5016 99.9104 33.9677C95.925 35.2086 92.5895 37.535 89.6518 40.4133C87.4561 42.5639 84.8259 43.5349 81.8594 43.8498C79.467 44.1033 77.0684 44.3302 74.6821 44.6348C74.1265 44.7063 73.9461 44.4263 73.9297 44.0726C73.8764 42.8869 73.489 41.7503 73.5013 40.5544C73.5136 39.3258 74.0794 38.5367 75.1782 38.0869C76.8244 37.4123 78.5937 37.2263 80.3137 36.8644C84.6865 35.9445 89.0634 35.0348 93.4547 34.2007C96.4396 33.6345 99.4553 33.2563 102.491 33.0804C103.16 33.0416 103.851 33.3932 104.468 32.7656H104.47Z" fill="#34208E"/>
<path id="Vector_26" d="M127.078 20.6765C126.951 20.3964 126.853 20.2349 126.801 20.0612C126.145 17.882 124.38 16.8414 122.141 17.3668C121.863 17.4322 121.594 17.4833 121.313 17.4915C120.727 17.5099 120.446 17.8104 120.491 18.393C120.581 19.5603 120.405 20.7113 120.227 21.9521C119.938 20.9831 119.7 20.0775 119.401 19.1903C118.691 17.101 118.111 16.6717 115.926 16.5429C113.679 16.4101 113.697 16.4101 113.656 18.6343C113.64 19.4724 113.511 20.3085 113.431 21.1896C113.017 20.8646 113.039 20.3985 112.898 20.0121C112.791 19.7198 112.764 19.3988 112.664 19.1024C111.438 15.4922 110.864 15.7518 107.334 15.7927C106.911 15.7968 106.875 16.0196 106.784 16.3712C106.528 17.3648 106.68 18.3726 106.583 19.3968C106.292 19.3007 106.266 19.0901 106.249 18.8407C106.204 18.1702 105.946 17.561 105.698 16.9457C104.767 14.6234 102.397 14.3228 100.46 14.8544C100.019 14.975 99.9494 15.3021 99.9371 15.7355C99.9125 16.6697 99.9945 17.5937 99.8182 18.5443C99.5024 20.2431 98.4672 21.2734 97.0526 22.036C95.2567 23.0029 93.2477 23.2789 91.298 23.7388C89.9019 24.068 88.5038 24.3808 87.1036 24.6997C86.9375 24.4032 87.1958 24.2806 87.3024 24.1293C89.0429 21.6782 90.5907 19.1147 91.8597 16.3876C92.075 15.9256 92.3497 15.6721 92.8684 15.5269C94.5269 15.0649 96.167 14.5252 97.8091 14.0019C99.8038 13.3661 101.823 13.4642 103.855 13.7586C105.146 13.9467 106.442 14.1082 107.74 14.2513C109.689 14.4639 111.631 14.7624 113.576 14.9627C115.376 15.1487 117.164 15.4145 118.964 15.5862C120.706 15.7518 122.451 15.9419 124.173 16.2343C124.848 16.3487 125.547 16.2608 126.209 16.5552C127.179 16.9866 127.523 17.5998 127.402 18.6792C127.33 19.3273 127.25 19.9671 127.082 20.6785L127.078 20.6765Z" fill="#34208E"/>
<path id="Vector_27" d="M74.309 21.0498C71.0146 21.0355 67.7754 21.6917 64.4953 21.8226C61.3771 21.9473 61.2787 21.3524 61.3915 18.6948C61.4263 17.8853 61.3505 17.0757 61.658 16.2723C61.9717 15.4567 62.4903 15.0458 63.335 15.0274C64.6942 14.9987 66.0554 14.9967 67.4167 14.9681C72.2836 14.8638 77.1402 14.6144 81.9927 14.224C82.4745 14.1851 83.11 13.9643 83.4114 14.4222C83.7476 14.9313 83.2515 15.4403 82.9686 15.8369C82.2101 16.8979 81.3634 17.8935 80.406 18.7929C79.8012 19.3633 79.2723 20.0134 78.7085 20.6267C78.4194 20.9415 78.0894 21.0785 77.6322 21.0621C76.5272 21.0192 75.4181 21.0478 74.3111 21.0478L74.309 21.0498Z" fill="#EFCF2D"/>
<path id="Vector_28" d="M70.8669 22.6195C72.839 22.6195 74.3889 22.6154 75.9388 22.6256C76.1376 22.6256 76.4185 22.4989 76.5128 22.7851C76.5784 22.9834 76.3754 23.1142 76.2647 23.2614C74.8727 25.0931 73.0809 26.4975 71.2892 27.8999C71.2174 27.9571 71.0924 27.9653 71.0452 28.0328C69.9935 29.5414 68.4478 29.5231 66.8467 29.4474C65.5838 29.3881 64.3169 29.4392 63.052 29.4392C61.826 29.4392 61.5267 29.2757 61.4242 28.0512C61.3094 26.7142 61.3237 25.365 61.5103 24.0137C61.619 23.2266 62.0433 22.9956 62.6747 22.9875C65.551 22.9486 68.4088 22.4948 70.8689 22.6195H70.8669Z" fill="#EFCF2D"/>
<path id="Vector_29" d="M64.1138 46.2041C66.5513 44.309 68.952 42.5019 71.4654 40.5332C71.4654 42.0378 71.4613 43.3727 71.4674 44.7076C71.4674 45.0082 71.3649 45.1451 71.0389 45.1901C68.7285 45.5151 66.4222 45.8647 64.1138 46.2041Z" fill="#34208E"/>
<path id="Vector_30" d="M61.3482 35.3197C61.3482 34.2628 61.3236 33.2918 61.3564 32.3207C61.3749 31.7585 61.7172 31.4355 62.2851 31.3047C63.5951 31.0021 64.9194 31.0798 66.2417 31.1003C66.5267 31.1044 66.9634 31.18 66.6292 31.5418C65.1634 33.1303 63.7468 34.8147 61.3482 35.3176V35.3197Z" fill="#EFCF2D"/>
<path id="Vector_31" d="M52.3569 21.4012C52.3179 21.3133 52.1498 21.252 52.0309 21.2254C51.258 21.0721 50.4851 20.9127 49.7061 20.7798C47.4879 20.4057 45.2656 20.0438 43.0516 19.6616C42.7297 19.6043 42.5882 19.6963 42.4734 19.9825C42.0716 20.9658 41.639 21.9389 41.227 22.9222C40.9523 23.5825 40.8641 23.6275 40.1138 23.3535C40.6714 22.0452 41.2188 20.7409 41.7846 19.4408C41.9384 19.0892 42.1905 18.9379 42.6149 19.0319C43.8572 19.2956 45.1016 19.5205 46.3522 19.7535C46.8606 19.8496 47.3731 19.9212 47.8856 20.0009C47.8938 19.9702 47.8979 19.9437 47.9041 19.913C46.9057 19.7024 45.9032 19.4898 44.9007 19.2793C44.9766 19.0953 45.0196 19.0462 45.0545 19.0503C46.0221 19.2139 46.9857 19.3713 47.9492 19.5532C48.0332 19.5716 48.0907 19.7127 48.1706 19.7863C48.3039 19.9089 48.431 20.099 48.5909 20.1338C49.6118 20.3587 50.645 20.5222 51.666 20.7552C51.9407 20.8166 52.2708 20.9924 52.4122 21.2173C53.0928 22.3191 53.7202 23.4598 54.3659 24.5883C53.9252 23.6009 53.4516 22.6237 52.9616 21.6506C52.6029 20.9372 52.0514 20.4997 51.2068 20.5263C51.1494 20.5263 51.092 20.469 51.0161 20.4302C51.051 20.2544 51.0776 20.099 51.1084 19.9416C50.9977 19.8926 50.9218 19.8455 50.8398 19.8271C48.4453 19.3651 46.0467 18.9113 43.6563 18.4391C43.2053 18.3512 42.8117 18.3287 42.498 18.7437C42.4406 18.8234 42.2541 18.8316 42.1311 18.8316C41.9978 18.8316 41.8707 18.8316 41.7375 18.8357C41.68 19.4387 41.4361 19.5634 41.0261 19.588C38.4512 19.7372 35.8783 19.9355 33.2993 20.0602C32.8319 20.0868 32.8176 20.422 32.633 20.6428C32.0631 21.3072 31.485 21.9696 30.9684 22.6748C30.6588 23.0898 30.2755 23.1552 29.6604 23.2043C30.3185 22.5031 30.87 21.9082 31.4358 21.3236C31.895 20.8432 32.3542 20.3587 32.8627 19.9273C33.0656 19.7515 33.3875 19.6595 33.6663 19.6329C36.3314 19.3549 38.9944 19.1035 41.7333 18.8398C39.0067 18.8581 36.2904 19.0646 33.6048 19.5144C33.1681 19.59 32.6987 19.8455 32.3686 20.1542C31.4235 21.0476 30.5399 22.0186 29.6215 22.9426C29.5026 23.0653 29.316 23.1798 29.1479 23.1982C28.1044 23.3167 27.0589 23.3924 26.0154 23.515C25.8042 23.5375 25.6095 23.6684 25.4004 23.7563H25.3778C24.4245 23.8401 23.4733 23.9239 22.52 24.0036C22.0833 24.0384 21.8004 24.2633 21.6098 24.6558C21.0665 25.7883 20.8102 26.9638 20.7651 28.1678H21.7943C21.7861 28.0452 21.7717 27.9205 21.7594 27.7978C21.7328 27.6077 21.3802 27.4626 21.0973 27.2336C21.2162 26.7532 21.3535 26.142 21.5298 25.543C21.5606 25.4285 21.7369 25.2997 21.866 25.2731C22.1407 25.2159 22.4278 25.22 22.7988 25.1934C22.7414 25.5634 22.6881 25.915 22.6266 26.2994C23.3113 26.4322 22.9136 25.4837 23.4446 25.3876C23.338 25.7045 23.2539 25.9518 23.1699 26.2033C23.2232 26.238 23.2765 26.2728 23.3339 26.3055C23.502 26.1563 23.6701 26.0009 23.8157 25.8742C23.9182 25.9927 24.0535 26.1563 24.2216 26.3546C24.3487 26.1256 24.4204 25.9989 24.5434 25.7781C24.5926 25.9845 24.6193 26.099 24.65 26.2278H25.097C25.1052 26.0684 25.1154 25.9069 25.1318 25.5982C25.2815 25.8721 25.3737 26.0377 25.5295 26.3198C25.7058 26.1092 25.8555 25.9191 26.0154 25.7249C26.0584 25.8435 26.1179 26.0152 26.1835 26.2053C26.7268 26.3014 26.5279 25.9109 26.5853 25.6288C26.6263 25.7658 26.6653 25.8966 26.7145 26.0827C26.8108 26.007 26.8908 25.9457 27.024 25.8394C27.0056 26.007 26.9933 26.1256 26.9851 26.2544C27.2864 26.2851 27.4361 26.2196 27.3705 25.8312C27.3172 25.5225 27.3746 25.1668 27.8564 25.2895C27.9527 25.3161 28.0101 25.4878 28.086 25.5941C28.047 25.6166 28.0019 25.6391 27.963 25.6595C27.8297 25.6104 27.6924 25.5634 27.5612 25.5144C27.553 25.6063 27.512 25.7086 27.5386 25.7883C27.596 25.9559 27.6842 26.1133 27.76 26.2769C27.8441 26.1972 27.9281 26.1133 28.0245 26.0213C28.0737 26.1052 28.1311 26.2074 28.2315 26.3914C28.2705 26.1358 28.293 25.9866 28.3197 25.8374C28.3545 25.8333 28.3955 25.8333 28.4304 25.8333C28.4488 25.9743 28.4693 26.1195 28.5103 26.4016C28.6969 26.1501 28.8424 25.9559 28.9839 25.7638C29.1172 26.5263 29.068 26.5917 28.3381 26.5958C26.5669 26.604 24.7894 26.6142 23.0182 26.6183C22.7701 26.6183 22.5241 26.5917 22.2494 26.5733C22.2986 26.974 22.4565 27.1293 22.846 27.1232C24.7587 27.1007 26.6714 27.1007 28.58 27.115C29.0741 27.115 29.1582 26.7716 29.2525 26.4322C29.398 25.8987 29.5046 25.3529 29.888 24.9338C29.9331 24.9522 29.9761 24.9644 30.0151 24.9828C29.8818 25.4019 29.7506 25.819 29.6174 26.2421C29.683 26.2728 29.7445 26.3075 29.808 26.3382C30.0417 25.8721 30.2775 25.4081 30.5112 24.942C30.5502 24.9604 30.5912 24.9767 30.6301 24.9951C30.4969 25.4101 30.3698 25.823 30.2591 26.1747C31.1037 26.1747 31.9729 26.2094 32.8401 26.1481C33.039 26.1297 33.2153 25.7699 33.4018 25.5655C33.6089 25.3283 33.5392 24.8213 34.2157 24.8786C34.0046 25.4162 33.8323 25.9048 33.6109 26.3668C33.572 26.4506 33.3403 26.4772 33.1948 26.4772C31.9442 26.4854 30.6896 26.4813 29.439 26.4813C29.4349 26.5242 29.4308 26.5692 29.4267 26.6183C29.644 26.6367 29.8593 26.6796 30.0766 26.6755C31.1816 26.653 32.2804 26.6142 33.3813 26.5999C33.6827 26.5958 33.8631 26.5161 33.943 26.2074C34.0004 25.9743 34.146 25.7679 34.1993 25.5328C34.3367 24.9195 34.7303 24.7273 35.3166 24.7662C35.7184 24.7927 36.1243 24.7702 36.5528 24.8009C35.0419 25.2731 34.3613 26.4036 34.0866 27.8551C34.1706 27.6343 34.2547 27.4196 34.3387 27.2029C34.9578 25.6084 35.9788 24.899 37.7357 24.8684C38.8366 24.85 39.9354 24.85 41.0363 24.85C41.2434 24.85 41.4463 24.8847 41.6555 24.9031C41.6473 24.9563 41.637 25.0053 41.6288 25.0564H40.4746C40.8457 25.6595 41.1019 26.1706 41.4504 26.6121C41.719 26.9515 41.883 27.2724 41.8871 27.714C41.8871 27.8632 41.8912 28.0145 41.8953 28.1678H42.0942C42.0491 27.0496 42.0019 25.9293 41.9302 24.8111C41.9117 24.4677 41.7662 24.1283 41.6616 23.7276C43.1766 23.8299 44.6486 23.9219 46.1205 24.0138C46.51 24.0404 46.7601 24.204 46.8175 24.621C46.8688 25.0053 46.9283 25.3958 46.9898 25.7965C47.0492 25.7617 47.1148 25.7392 47.1784 25.7086C47.0923 25.1403 47.0082 24.5863 46.9242 24.0363C47.4756 24.0629 48.0906 24.0977 48.7057 24.1202C49.3719 24.1386 49.5893 23.9791 49.8373 23.3188L49.8496 23.327C49.7225 23.1777 49.5544 23.0489 49.4785 22.8772C49.2674 22.405 49.1034 21.9164 48.9045 21.4462C48.8389 21.297 48.7282 21.0803 48.6093 21.0578C47.8446 20.9086 47.0718 20.8064 46.2538 20.6796C46.3952 21.8121 46.5182 22.8261 46.6433 23.8176C46.0959 23.9811 45.9319 23.7992 45.8704 23.3331C45.7741 22.5706 45.5752 21.8183 45.4378 21.0599C45.3722 20.6898 45.159 20.5447 44.8064 20.514C44.3595 20.4691 43.9187 20.422 43.4759 20.3505C43.15 20.2932 42.9142 20.3689 42.7461 20.6673C42.5206 21.0639 42.2643 21.4421 42.0265 21.8265C42.1762 21.2438 42.416 20.7021 42.6456 20.1563C42.7563 19.8966 42.9142 19.8312 43.2115 19.8783C45.2923 20.2176 47.3772 20.5263 49.4581 20.8554C49.8373 20.9168 50.1346 21.0926 50.315 21.4953C50.6512 22.2476 51.0489 22.9713 51.4466 23.6888C51.5389 23.8564 51.7172 24.0588 51.8792 24.0813C52.3999 24.1529 52.9309 24.1467 53.5008 24.1733C53.4619 24.0057 53.4475 23.8994 53.4086 23.8115C53.0682 23.0101 52.7279 22.2026 52.3651 21.4115L52.3569 21.4012ZM27.8728 23.5232C29.724 23.3863 31.5711 23.2145 33.4264 23.1573C34.9988 23.1082 36.5774 23.1982 38.1498 23.2227V23.4087C37.2396 23.4087 36.3252 23.3781 35.415 23.4128C32.9754 23.515 30.542 23.6602 28.1065 23.7604C27.2311 23.7951 26.366 23.7563 25.4865 23.7481C26.2819 23.6725 27.0773 23.5805 27.8728 23.5232ZM32.1185 26.0213C31.729 26.0295 31.3415 25.9825 30.9602 26.0132C30.5235 26.0438 30.5051 25.727 30.6199 25.5328C30.7695 25.2854 31.0483 25.0176 31.3128 24.9685C31.7905 24.8806 32.303 24.942 32.8155 24.942C33.0185 25.7474 32.8463 26.0029 32.1164 26.0213H32.1185ZM21.784 24.942C21.8681 24.3389 22.0977 24.1529 22.8583 24.1263C24.8366 24.0466 26.817 23.9811 28.7953 23.9157C30.1381 23.8769 31.4912 23.9423 32.8196 23.7931C35.5401 23.4844 38.2544 23.6397 40.9707 23.7052C41.4607 23.7174 41.6165 23.9382 41.6165 24.5024C35.0152 24.6517 28.416 24.7968 21.784 24.942ZM42.6907 22.313C43.1192 22.221 43.5825 22.2517 44.0253 22.2742C44.1278 22.2782 44.2775 22.4418 44.2939 22.5481C44.3329 22.7995 44.3062 23.0592 44.3062 23.4517C43.7096 23.3903 43.1623 23.3638 42.6313 23.2718C42.4673 23.2411 42.1946 22.9549 42.2213 22.8936C42.3176 22.6687 42.4898 22.36 42.6887 22.3171L42.6907 22.313Z" fill="#34208E"/>
<path id="Vector_32" d="M52.1211 2.13477C52.1211 2.13477 52.1252 2.14306 52.1252 2.14721C52.1252 2.14306 52.1294 2.13891 52.1336 2.13477H52.1211Z" fill="#34208E"/>
<path id="Vector_33" d="M55.2454 28.8789H15.9331V30.2404H55.2454V28.8789Z" fill="#34208E"/>
<g id="Group_3">
<path id="Vector_34" d="M32.2886 34.0641C32.4259 34.5241 32.5633 34.9841 32.7006 35.444C32.8195 35.8447 32.9385 36.2433 33.0553 36.6461C33.0779 36.7217 33.1086 36.7565 33.1947 36.7565C33.3792 36.7565 33.5637 36.7708 33.7462 36.781C33.8138 36.7851 33.8446 36.781 33.8159 36.6972C33.4571 35.6546 33.1004 34.612 32.7457 33.5674C32.7293 33.5163 32.7047 33.502 32.6514 33.502C31.8724 33.504 31.0954 33.5449 30.3205 33.6123C29.6235 33.6716 28.9285 33.7595 28.2376 33.8597C27.6041 33.9517 26.9748 34.0662 26.3474 34.1991C26.1506 34.2399 25.962 34.3115 25.8144 34.4546C25.5746 34.6897 25.5705 34.9718 25.6627 35.2703C25.7755 35.6342 26.003 35.9285 26.2265 36.229C26.3618 36.4089 26.5217 36.4641 26.7411 36.4723C28.2397 36.5296 29.7383 36.6031 31.2348 36.6706C31.5464 36.6849 31.8601 36.6951 32.1717 36.7115C32.2353 36.7156 32.2517 36.7054 32.2312 36.6379C32.0057 35.906 31.7822 35.1721 31.5628 34.4382C31.5464 34.3851 31.5239 34.3667 31.4665 34.3646C30.2918 34.3381 29.1171 34.379 27.9424 34.4403C27.764 34.4505 27.5857 34.4566 27.4094 34.4648C27.352 34.4812 27.2925 34.4709 27.2331 34.4709C27.1306 34.4771 27.0281 34.4832 26.9256 34.4832C26.942 34.4832 26.9563 34.4832 26.9727 34.4832C27.0404 34.4832 27.108 34.4689 27.1757 34.4689C27.2946 34.4178 27.4237 34.4198 27.5488 34.3994C27.723 34.3728 27.8973 34.3503 28.0716 34.3299C28.2397 34.3074 28.4098 34.289 28.5779 34.2686C28.787 34.242 28.9961 34.2215 29.2053 34.1991C29.359 34.1807 29.5148 34.1684 29.6686 34.1582C29.8633 34.1439 30.0581 34.1255 30.2549 34.1071C30.3656 34.0968 30.4784 34.0928 30.5911 34.0866C30.9704 34.0682 31.3496 34.0396 31.731 34.0437C31.8868 34.0437 32.0426 34.0437 32.1984 34.0457C32.2312 34.0457 32.2681 34.0335 32.2906 34.0744L32.2886 34.0641Z" fill="#34208E"/>
<path id="Vector_35" d="M36.3071 34.1942C36.6782 34.2576 37.039 34.3537 37.3855 34.4968C37.9882 34.7482 38.5479 35.0875 39.1158 35.4044C39.7144 35.7376 40.2904 36.1056 40.8563 36.4879C41.1433 36.6821 41.4221 36.8865 41.705 37.0889C41.7563 37.1257 41.8075 37.138 41.869 37.14C42.1991 37.1523 42.5312 37.1707 42.8612 37.185C42.8694 37.185 42.8776 37.1809 42.9063 37.1748C42.7854 37.0726 42.6767 36.9785 42.5619 36.8906C42.1048 36.537 41.6066 36.2426 41.1105 35.9502C40.2617 35.4494 39.3905 34.9853 38.511 34.5376C37.8098 34.1778 37.0595 33.9714 36.2928 33.816C35.3846 33.632 34.4641 33.5441 33.5395 33.5155C33.4329 33.5114 33.3284 33.5155 33.2095 33.5155C33.2566 33.6565 33.3038 33.7996 33.353 33.9427C33.6666 34.8647 33.9824 35.7887 34.296 36.7107C34.3186 36.7802 34.3493 36.8068 34.4252 36.8109C35.8418 36.8722 37.2584 36.9376 38.675 37.001C38.6934 37.001 38.7119 37.0092 38.7344 36.9847C38.6073 36.8436 38.4782 36.7005 38.349 36.5594C38.0784 36.261 37.8119 35.9605 37.5392 35.664C37.2194 35.3186 36.9304 34.9445 36.5183 34.695C36.1349 34.464 35.729 34.2801 35.3108 34.1206C35.278 34.1083 35.2473 34.0961 35.2144 34.0838C35.2021 34.0695 35.1878 34.0552 35.1693 34.0531C35.2062 34.0429 35.2432 34.0531 35.278 34.0572C35.4769 34.0695 35.6716 34.0961 35.8684 34.1247C36.014 34.1451 36.1595 34.1737 36.3051 34.1983L36.3071 34.1942Z" fill="#34208E"/>
<path id="Vector_36" d="M43.1747 36.6835C42.9922 36.4688 42.7749 36.291 42.5556 36.1152C41.6987 35.4283 40.7741 34.8436 39.8269 34.2876C39.4313 34.0545 39.0274 33.8358 38.6215 33.6232C37.9778 33.2859 37.2869 33.0835 36.5776 32.9445C35.7022 32.7728 34.8165 32.6869 33.9247 32.6521C32.7316 32.6072 31.5385 32.646 30.3453 32.7135C29.0128 32.7912 27.6864 32.9322 26.3682 33.1366C25.3534 33.2941 24.3447 33.4903 23.3504 33.7479C23.127 33.8051 22.9076 33.8705 22.6719 33.936C22.7826 34.0545 22.881 34.1649 22.9876 34.2692C23.0409 34.3223 23.0204 34.3448 22.9712 34.3775C22.0855 34.9663 21.1999 35.555 20.3122 36.1418C20.2528 36.1806 20.2323 36.2072 20.263 36.2869C20.4967 36.9002 20.4988 37.5094 20.1974 38.1043C20.1359 38.2269 20.056 38.3394 19.974 38.4498C19.9617 38.4661 19.9412 38.4784 19.9227 38.4886C19.6049 38.6521 19.4778 38.9261 19.4717 39.2695C19.4635 39.7397 19.5578 40.1915 19.7054 40.6351C19.7485 40.7659 19.8018 40.8906 19.8469 41.0215C19.8674 41.0808 19.9022 41.1155 19.9576 41.136C20.0006 41.1523 20.0088 41.136 19.9965 41.0951C19.9043 40.8211 19.7833 40.5554 19.7423 40.2671C19.6787 39.8235 19.7156 39.3922 19.9022 38.9792C19.9904 38.785 20.1646 38.6951 20.3532 38.6276C20.6033 38.5397 20.8596 38.4927 21.1261 38.4947C21.1733 38.4947 21.2204 38.4947 21.2676 38.4947C21.6284 38.509 21.8764 38.3373 22.0548 38.0368C22.2577 37.6934 22.4669 37.354 22.676 37.0147C22.8072 36.8021 22.7395 36.5935 22.5017 36.5159C22.0527 36.3687 21.5935 36.2624 21.12 36.2378C21.0502 36.2337 20.9518 36.2521 20.9293 36.1765C20.9047 36.0907 20.999 36.0477 21.0605 36.0048C21.6878 35.5837 22.3172 35.1666 22.9466 34.7475C23.1044 34.6412 23.2602 34.5329 23.4222 34.4327C23.498 34.3857 23.4878 34.355 23.4263 34.308C23.3545 34.2549 23.291 34.1935 23.2069 34.12C23.4345 34.0668 23.6395 34.0157 23.8466 33.9707C25.2939 33.6457 26.7577 33.4045 28.2337 33.2368C29.351 33.1101 30.4724 33.0283 31.5979 32.9935C32.5881 32.9629 33.5783 32.9649 34.5685 33.0467C35.6448 33.1367 36.7047 33.3145 37.7358 33.6477C38.2525 33.8154 38.7363 34.0525 39.214 34.306C39.7019 34.5636 40.1898 34.8252 40.6736 35.091C41.2394 35.3997 41.7766 35.7492 42.3034 36.1193C42.574 36.3094 42.8487 36.4934 43.1214 36.6814C43.1399 36.6855 43.1583 36.7244 43.1768 36.6814L43.1747 36.6835Z" fill="#34208E"/>
<path id="Vector_37" d="M22.6248 39.9234C23.0553 39.9337 23.4879 39.9439 23.9184 39.9521C24.9127 39.9725 25.9049 39.9929 26.8992 40.0134C27.381 40.0236 27.8607 40.0297 28.3425 40.04C29.3552 40.0604 30.368 40.0809 31.3786 40.1013C31.9629 40.1136 32.5472 40.1217 33.1315 40.134C34.1216 40.1544 35.1118 40.1749 36.102 40.1953C36.674 40.2076 37.246 40.2158 37.8179 40.228C38.7343 40.2464 39.6487 40.2648 40.565 40.2832C41.2272 40.2955 41.8894 40.3078 42.5516 40.3221C43.5479 40.3425 44.5442 40.363 45.5406 40.3834C45.9937 40.3916 46.4467 40.4059 46.8998 40.4059C47.1068 40.4059 47.3098 40.3507 47.482 40.226C47.644 40.1095 47.6399 39.9194 47.4738 39.8069C47.2893 39.6843 47.0761 39.6454 46.8588 39.6413C46.5841 39.6352 46.3094 39.6413 46.0326 39.6434C45.4012 39.6495 44.7698 39.6577 44.1383 39.6659C42.8591 39.6781 41.5819 39.6904 40.3026 39.7027C39.7245 39.7088 39.1464 39.7149 38.5683 39.721C37.3895 39.7333 36.2107 39.7456 35.0339 39.7578C34.4517 39.764 33.8715 39.7701 33.2893 39.7762C32.1085 39.7885 30.9256 39.8008 29.7447 39.813C29.1625 39.8192 28.5823 39.8253 28.0001 39.8314C26.8152 39.8437 25.6302 39.856 24.4453 39.8682C24.1337 39.8723 23.82 39.8785 23.5084 39.8826C23.3751 39.903 23.2419 39.8887 23.1107 39.8907C22.9528 39.8948 22.795 39.8907 22.6371 39.8907C22.6248 39.8969 22.6207 39.905 22.6268 39.9194L22.6248 39.9234Z" fill="#34208E"/>
<path id="Vector_38" d="M44.7698 36.9479C45.2208 37.0174 45.6719 37.0807 46.1208 37.1564C47.2853 37.3485 48.4456 37.5693 49.5875 37.8698C50.3829 38.0784 51.1661 38.3196 51.9061 38.6876C52.1645 38.8163 52.4084 38.9676 52.6216 39.1639C52.6462 39.1864 52.6708 39.2129 52.6934 39.2375C52.7036 39.2477 52.7118 39.262 52.7282 39.2845C52.6052 39.2784 52.4945 39.2722 52.3859 39.2661C51.7093 39.2375 51.0615 39.3581 50.4383 39.6218C50.4362 39.6218 50.4321 39.6218 50.4301 39.6238C50.1943 39.7261 50.1882 39.7792 50.3624 39.9612C50.7971 40.4129 51.3301 40.7032 51.9102 40.9138C52.1563 41.0037 52.4064 41.0876 52.6647 41.1305C52.718 41.1387 52.7303 41.1632 52.7221 41.2123C52.6688 41.525 52.5868 41.8317 52.4597 42.124C52.4269 42.1976 52.4289 42.2446 52.4925 42.2998C52.6278 42.4204 52.7549 42.5472 52.8881 42.6719C52.9127 42.6944 52.9332 42.725 52.9763 42.7291C52.923 42.5962 52.8697 42.4675 52.8164 42.3387C52.7938 42.2835 52.7938 42.2364 52.8164 42.1792C52.9435 41.8562 53.0296 41.523 53.0706 41.1775C53.0747 41.1448 53.0726 41.1182 53.0603 41.0876C52.9271 40.7911 52.9189 40.4763 52.9414 40.1615C52.9619 39.8405 53.0152 39.5257 53.1013 39.215C53.1157 39.1659 53.0952 39.1312 53.0665 39.0964C52.8922 38.8879 52.6749 38.7325 52.4392 38.5976C51.8057 38.2337 51.1148 38.0191 50.4137 37.831C49.3866 37.555 48.3411 37.371 47.2914 37.2116C46.5247 37.0951 45.7559 37.0051 44.9851 36.9213C44.9318 36.9152 44.8785 36.9131 44.8272 36.909C44.7678 36.8927 44.7063 36.9049 44.6468 36.9029C44.6345 36.909 44.6325 36.9172 44.6386 36.9295L44.6448 36.9336H44.653C44.6899 36.9499 44.7329 36.9254 44.7698 36.9499V36.9479Z" fill="#34208E"/>
<path id="Vector_39" d="M34.7489 41.5692C35.0933 41.5774 35.4357 41.5856 35.7801 41.5917C36.7826 41.6121 37.785 41.6326 38.7875 41.653C39.3472 41.6653 39.9069 41.6735 40.4645 41.6857C41.4772 41.7062 42.4879 41.7266 43.5007 41.7471C44.0972 41.7593 44.6938 41.7675 45.2904 41.7798C45.9239 41.792 46.5594 41.8043 47.1929 41.8166C47.3036 41.8186 47.4102 41.792 47.5065 41.7348C47.6275 41.6633 47.6295 41.5508 47.5106 41.4772C47.363 41.3852 47.1949 41.3893 47.0289 41.3914C46.6844 41.3955 46.3421 41.3995 45.9977 41.4036C45.3068 41.4098 44.6159 41.4159 43.925 41.422C43.3428 41.4282 42.7626 41.4343 42.1804 41.4404C40.9996 41.4527 39.8167 41.465 38.6358 41.4772C38.0536 41.4834 37.4734 41.4895 36.8912 41.4956C36.145 41.5038 35.3967 41.512 34.6505 41.5202C34.632 41.5202 34.6136 41.5242 34.5951 41.5263C34.591 41.5631 34.6197 41.5529 34.6382 41.5549C34.673 41.561 34.712 41.5447 34.7448 41.5651L34.7489 41.5692Z" fill="#34208E"/>
<path id="Vector_40" d="M35.8356 38.352C35.9853 38.352 36.135 38.352 36.2846 38.352C36.4117 38.352 36.4835 38.2845 36.4835 38.1782C36.4835 38.0801 36.4056 38.0085 36.2887 38.0065C35.9894 38.0004 35.6901 37.9963 35.3908 37.9922C35.3477 37.9922 35.3026 37.9922 35.2637 38.0167C35.1981 38.0596 35.1632 38.121 35.1817 38.2007C35.2001 38.2845 35.2575 38.3315 35.3416 38.3336C35.5076 38.3377 35.6716 38.3336 35.8377 38.3336C35.8377 38.3397 35.8377 38.3438 35.8377 38.3499L35.8356 38.352Z" fill="#34208E"/>
<path id="Vector_41" d="M22.6267 39.9052C22.8871 39.9052 23.1474 39.9011 23.4078 39.8991C23.4406 39.8991 23.4754 39.9113 23.5062 39.8848C23.0757 39.8848 22.6431 39.8848 22.2126 39.8868C22.1921 39.9072 22.1429 39.8684 22.1367 39.9216C22.2126 39.9216 22.2864 39.9216 22.3622 39.9216C22.4504 39.895 22.5406 39.9256 22.6287 39.9052H22.6267Z" fill="#34208E"/>
<path id="Vector_42" d="M44.6222 36.8863C44.4972 36.874 44.3721 36.8618 44.245 36.8516C44.2409 36.8516 44.2368 36.8516 44.2347 36.8516C44.2163 36.8536 44.1978 36.8536 44.1855 36.872C44.2983 36.8924 44.409 36.9211 44.5238 36.9088C44.5525 36.9272 44.5792 36.9047 44.6058 36.9027C44.614 36.8986 44.6181 36.8924 44.6202 36.8843L44.6222 36.8863Z" fill="#34208E"/>
<path id="Vector_43" d="M33.8122 41.5477C33.8921 41.562 33.9762 41.5293 34.0562 41.5661C34.2058 41.5661 34.3555 41.5661 34.5051 41.5661C34.4969 41.515 34.458 41.5416 34.4313 41.5395C34.337 41.5313 34.2427 41.5497 34.1484 41.5293C34.0356 41.5293 33.9229 41.5293 33.8101 41.5293C33.804 41.5334 33.8019 41.5375 33.804 41.5416C33.806 41.5457 33.8081 41.5477 33.8101 41.5477H33.8122Z" fill="#34208E"/>
<path id="Vector_44" d="M44.2451 36.8492C44.1139 36.8247 43.9827 36.8165 43.8494 36.8145C43.8453 36.8185 43.8433 36.8226 43.8433 36.8288C43.8433 36.8329 43.8453 36.8369 43.8474 36.8369C43.9478 36.8533 44.0462 36.8737 44.1487 36.8737C44.1774 36.8533 44.2102 36.8717 44.2389 36.8615C44.241 36.8594 44.243 36.8553 44.243 36.8533L44.2451 36.8492Z" fill="#34208E"/>
<path id="Vector_45" d="M34.1484 41.5305C34.2243 41.5693 34.3042 41.5386 34.3821 41.5488C34.4232 41.555 34.4683 41.5325 34.5052 41.5672C34.5872 41.5775 34.6671 41.5754 34.7491 41.5672C34.7081 41.5202 34.6405 41.5754 34.5995 41.5284C34.4498 41.5202 34.3001 41.5182 34.1505 41.5284L34.1484 41.5305Z" fill="#34208E"/>
<path id="Vector_46" d="M27.2437 34.4558C27.217 34.4578 27.1883 34.4681 27.1678 34.4395C27.1001 34.4476 27.0325 34.4538 26.9648 34.4619C26.9648 34.5008 26.9956 34.4865 27.012 34.4865C27.0837 34.4865 27.1555 34.4946 27.2252 34.4803C27.2867 34.4701 27.3523 34.4865 27.4118 34.4599C27.3564 34.4599 27.299 34.4578 27.2437 34.4558Z" fill="#34208E"/>
<path id="Vector_47" d="M43.6831 36.7983C43.6893 36.8086 43.6954 36.8208 43.7016 36.8311C43.7508 36.8311 43.8 36.8331 43.8492 36.8351C43.8492 36.829 43.8492 36.8208 43.8492 36.8147C43.7959 36.78 43.7385 36.8024 43.6831 36.7983Z" fill="#34208E"/>
<path id="Vector_48" d="M22.6269 39.9055C22.5387 39.9096 22.4485 39.883 22.3604 39.9219C22.4485 39.9219 22.5346 39.9219 22.6228 39.9219C22.6228 39.9157 22.6248 39.9096 22.6269 39.9055Z" fill="#34208E"/>
<path id="Vector_49" d="M33.8122 41.5476C33.8122 41.5476 33.8122 41.5374 33.8122 41.5312C33.7323 41.5312 33.6523 41.5313 33.5703 41.5333C33.6503 41.566 33.7323 41.5435 33.8122 41.5476Z" fill="#34208E"/>
<path id="Vector_50" d="M44.6386 36.9092C44.7021 36.9092 44.7636 36.9092 44.8272 36.9092C44.7595 36.8826 44.6898 36.8949 44.6201 36.8867V36.8949C44.616 36.9092 44.6201 36.9194 44.6365 36.9112L44.6386 36.9092Z" fill="#34208E"/>
<path id="Vector_51" d="M43.1747 36.6831C43.1562 36.7056 43.1377 36.6749 43.1191 36.6831C43.1438 36.7036 43.1685 36.722 43.1932 36.7426C43.2117 36.7446 43.2199 36.7385 43.2158 36.72C43.2035 36.7077 43.1891 36.6954 43.1767 36.6831H43.1747Z" fill="#34208E"/>
<path id="Vector_52" d="M43.2135 36.7208C43.2135 36.7208 43.1991 36.7372 43.1909 36.7434C43.2094 36.7721 43.2382 36.7865 43.2814 36.7926C43.2629 36.7577 43.2423 36.7352 43.2135 36.7188V36.7208Z" fill="#34208E"/>
<path id="Vector_53" d="M44.6386 36.908C44.6386 36.908 44.6263 36.8978 44.6181 36.8916C44.5831 36.8793 44.5564 36.9101 44.5234 36.906C44.5584 36.9306 44.5975 36.9306 44.6386 36.9244C44.6386 36.9183 44.6386 36.9121 44.6386 36.906V36.908Z" fill="#34208E"/>
<path id="Vector_54" d="M19.9986 41.0977C19.9965 41.1223 19.9842 41.1366 19.9595 41.1387C19.9739 41.1551 19.9986 41.1756 20.013 41.1612C20.0356 41.1407 20.013 41.1182 19.9986 41.0977Z" fill="#34208E"/>
<path id="Vector_55" d="M44.7701 36.9479C44.7351 36.9151 44.694 36.9274 44.6528 36.9315C44.6899 36.9499 44.7289 36.952 44.7701 36.9479Z" fill="#34208E"/>
<path id="Vector_56" d="M44.2409 36.8582C44.21 36.8582 44.1771 36.8418 44.1504 36.8705C44.1627 36.8705 44.173 36.8705 44.1854 36.8705C44.2039 36.8664 44.2224 36.8602 44.2409 36.8561V36.8582Z" fill="#34208E"/>
<path id="Vector_57" d="M27.225 34.4801C27.1389 34.4637 27.0487 34.5025 26.9626 34.4617C26.9216 34.4514 26.8888 34.4719 26.856 34.5005C26.979 34.4841 27.102 34.5128 27.225 34.4801Z" fill="#34208E"/>
<path id="Vector_58" d="M35.1447 34.0628C35.1775 34.026 35.2226 34.0587 35.2574 34.0424C35.2185 34.0178 35.1754 34.0301 35.1344 34.026C35.1201 34.026 35.0914 34.0199 35.0975 34.0464C35.1016 34.0648 35.1262 34.0628 35.1447 34.0628Z" fill="#34208E"/>
</g>
</g>
<defs>
<clipPath id="clip0_624_3488">
<rect width="150" height="92.602" fill="white"/>
</clipPath>
</defs>
</svg>
